<?xml version="1.0" encoding="utf-8"?>
<!-- Generator: Adobe Illustrator 22.0.1, SVG Export Plug-In . SVG Version: 6.00 Build 0)  -->
<svg version="1.1" id="Layer_1" xmlns="http://www.w3.org/2000/svg" xmlns:xlink="http://www.w3.org/1999/xlink" x="0px" y="0px"
	 viewBox="0 0 320 320" style="enable-background:new 0 0 320 320;" xml:space="preserve">
<style type="text/css">
	.st0{fill:url(#SVGID_1_);}
	.st1{fill:#070102;}
	.st2{opacity:8.000000e-02;fill-rule:evenodd;clip-rule:evenodd;fill:#121A57;}
	.st3{opacity:0.12;fill-rule:evenodd;clip-rule:evenodd;fill:#121A57;}
	.st4{opacity:8.000000e-02;fill:#121A57;}
	.st5{opacity:5.000000e-02;fill:#FFFFFF;}
	.st6{opacity:6.000000e-02;fill-rule:evenodd;clip-rule:evenodd;fill:#FFFFFF;}
	.st7{opacity:2.000000e-02;fill:#FFFFFF;}
	.st8{opacity:4.000000e-02;fill-rule:evenodd;clip-rule:evenodd;fill:#121A57;}
	.st9{opacity:0.14;fill:#121A57;}
	.st10{opacity:7.000000e-02;fill-rule:evenodd;clip-rule:evenodd;fill:#FFFFFF;}
	.st11{fill-rule:evenodd;clip-rule:evenodd;fill:#E2923D;}
	.st12{opacity:9.000000e-02;fill:#121A57;}
	.st13{opacity:0.1;fill:#121A57;}
	.st14{opacity:0.37;fill-rule:evenodd;clip-rule:evenodd;fill:#121A57;}
	.st15{opacity:0.3;fill:#121A57;}
	.st16{fill:#E59D5F;}
</style>
<g id="Planet">
	<linearGradient id="SVGID_1_" gradientUnits="userSpaceOnUse" x1="103.6063" y1="218.4254" x2="216.1223" y2="105.9094">
		<stop  offset="0" style="stop-color:#8F0061"/>
		<stop  offset="0.1302" style="stop-color:#840066"/>
		<stop  offset="0.4061" style="stop-color:#6F1970"/>
		<stop  offset="0.8017" style="stop-color:#442680"/>
		<stop  offset="1" style="stop-color:#252C88"/>
	</linearGradient>
	<path class="st0" d="M239.7,162.2c0,0.1,0,0.2,0,0.4c0,0.1,0,0.2,0,0.3v0c0,1,0,2-0.1,3c-0.1,2.8-0.4,5.6-0.8,8.4
		c-3.7,23.7-17.9,43.9-37.7,55.8c-0.6,0.4-1.2,0.7-1.8,1.1c-1,0.6-2.1,1.2-3.2,1.7c-10.9,5.5-23.1,8.6-36.2,8.6
		c-31.2,0-58.3-17.8-71.4-43.7c-0.9-1.7-1.7-3.5-2.4-5.2c-0.4-0.9-0.8-1.8-1.1-2.8c0,0,0,0,0-0.1c0,0,0,0,0-0.1
		c-0.9-2.4-1.7-4.9-2.3-7.4c0,0,0-0.1,0-0.1c-0.1-0.4-0.2-0.8-0.3-1.1c-0.1-0.3-0.2-0.7-0.2-1c-0.1-0.5-0.2-1-0.4-1.6
		c-0.1-0.4-0.2-0.9-0.3-1.3c-0.2-0.9-0.3-1.9-0.5-2.9c0,0,0-0.1,0-0.1c-0.4-2.5-0.7-5.1-0.8-7.7c0-0.5,0-0.9,0-1.4
		c0-0.5,0-1.1,0-1.6c0-0.3,0-0.5,0-0.8c0-0.1,0-0.3,0-0.4c0-39.4,28.9-72,66.8-78.2c4.2-0.7,8.6-1.1,13-1.1c1.7,0,3.3,0.1,4.9,0.2
		h0.1c1.5,0.1,3,0.2,4.5,0.4c30.5,3.6,55.8,24.3,65.7,52.1c0,0.1,0,0.2,0.1,0.2c0,0.1,0,0.1,0.1,0.2c0.1,0.2,0.1,0.4,0.1,0.4h0
		c0.1,0.4,0.3,0.7,0.4,1.1c0,0.1,0.1,0.3,0.1,0.4c0.1,0.2,0.1,0.4,0.2,0.5c0,0.1,0,0.1,0.1,0.2c0,0,0,0.1,0,0.1c0,0.1,0,0.1,0,0.2
		c0,0,0,0.1,0,0.1c0.8,2.7,1.5,5.4,2,8.2l0,0.1c0,0.1,0,0.2,0,0.2c0.2,0.8,0.3,1.6,0.4,2.5c0.1,0.7,0.2,1.4,0.3,2.2c0,0,0,0,0,0.1
		c0.1,0.6,0.1,1.3,0.2,1.9c0,0.2,0,0.4,0.1,0.6c0.1,0.6,0.1,1.2,0.1,1.8C239.7,158.4,239.7,160.3,239.7,162.2z"/>
	<path class="st1" d="M164.8,148.2"/>
</g>
<g>
	<path class="st2" d="M154.7,137.5c0,0,11.6-2.1,13.1-1.8s-1.8-2.9-3.5-2.8c-1.6,0,1.9-3.4,5.9-2.3s10.2,2.6,7.2,0.5
		c-3-2.2,4.8-3.9,8.9-2.9c4.2,1.1-0.4,5.5-5.1,5.4s1.5,3.3,12.9,0.8c11.4-2.4-7.4,1-4.7-1.2s6.6-4,5.6-5c-1-1,2.3-6.3-4.1-5.9
		c-6.3,0.5-16.2,0.5-14-1c2.2-1.6-8.1-11.3-10.2-6.7s-2,8.1,0.1,8.6c2.1,0.5-4.9,4.3-7.4,3.7c-2.5-0.6-14-1-9.3,1.8
		c4.8,2.8,11.3,0.7,11.3,0.7s-8.3,3.5-10.4,4.5c-2.1,1,3.1-0.2,3.9,0.6C155.7,135.5,151.5,138.1,154.7,137.5z"/>
	<path class="st3" d="M169.3,168.1c0,0-12.1-1.2-7.9-4.9s8.6-1.9,4.5-6.9s-9.3-10.3-3.8-9.8c5.5,0.6,23,0.8,17.1-3.8
		c-5.9-4.7-11.1-11,0.4-4c11.5,7,18.2,18.1,8.8,15.9s-21.7-6-16-2.1c5.7,3.9,11.9,10.4,9.8,10.6s-12.1-0.5-11.1,2.2
		C172.1,167.9,169.3,168.1,169.3,168.1z"/>
	<path class="st4" d="M165.4,170c0,0,11.6,0.5,8.5-4.3c0,0-2.5-2.8,11.3-0.4c13.8,2.4-28.7-20,9.2-8.2c0,0,4.8,3.1-0.8-12.4
		c0,0,0.7-0.7,6.8,5.5s14.6-6.6,14.6-6.6s4.1-3.6,3.5,2.4c-0.5,6-7,2.9-5.2,6.5c1.8,3.7,9.2,11.4,2.1,9.7
		c-7.1-1.6-18.1-13.8-15.1-9.1c3,4.7,10.9,14.3,6.6,13.7c-4.3-0.6-6.5-11.2-10.7-4.5c-4.2,6.7,4.3,10.2,0.9,10.5
		s-24.5-10.3-18.9-6.1c5.6,4.2-3.8,3.2-4.7,5.9S172.3,182.4,165.4,170z"/>
	<path class="st5" d="M169.4,183.8c0,0,0.7-5.5,1.9-6.2c1.2-0.7,7.8-1.2,7.3-2.7c-0.5-1.6-3.2-4,5.8,0.8s15.3,4.8,13.4,2
		s-5.1-4.9-4.4-7.8c0.6-2.8,1-4.5,1.8-4.3c0.8,0.2,7.3,9.7,9.3,8c2-1.7-2.3-9.4-1.1-9.3c1.2,0.1,8.5,7.5,8.4,8.5
		c-0.1,1,3.6,6.5-2.5,6.3c-6.1-0.3-12.6-9.3-12.8-8.3c-0.1,1,8.2,9.8,5.3,10.7s-3.7,2.8-2.8,4.3c0.9,1.5-0.6,3.4-2.9,1
		s-5.7-4.4-3.9-0.7c1.8,3.7,1.7,6.4-5.6-1.6s-6.2-2.6-6.3-2.3s10.2,7.5,6.3,6.3c-3.8-1.2-12.2-4.2-10.7-0.6
		C177.4,191.2,173,189.1,169.4,183.8z"/>
	<path class="st3" d="M104.1,115.4c0,0-12.1,0-8.3,4s8.3,2.8,3.8,7.3c-4.5,4.5-10.4,9.3-4.8,9.3c5.6,0,23,1.5,16.7,5.6
		c-6.3,4-12.1,9.8,0,4s19.9-16.2,10.4-14.9c-9.6,1.3-22.2,3.8-16.2,0.5c6.1-3.3,12.9-9.1,10.9-9.6c-2-0.5-12.1-0.8-10.9-3.3
		S104.1,115.4,104.1,115.4z"/>
	<path class="st6" d="M96.9,141.1c3.6,0.2,15.6-2.4,10.7,0.4c-4,2.3-14.1,6-13.7,7.7c0.1,0.5,1.5,0.8,1.9,0.8
		c10,1.4,19.5-3.9,19.5-3.9c5.6-3.2,9-6.6,9.5-6.2c0.5,0.5-4.6,5.5-3.9,6.2c0.5,0.5,4.1-1.6,7.2-4.1c3.2-2.7,3.4-3.8,5.2-4.5
		c4-1.4,10,1.7,9.9,4.1c-0.1,3.8-16.3,6.8-16.2,7.1c0,0.1,2.3-0.8,4.7,0c1.3,0.4,2.9,1.5,2.8,2.2c-0.2,1.4-6.1,0.8-13,1.8
		c-11.7,1.6-20.1,6.9-20.4,6.3c-0.2-0.5,6.4-3.7,6-4.7c-0.3-0.8-4.4,0.8-10.5,0.6c-4.3-0.1-11-1.2-11.4-3.6
		c-0.1-0.9,0.6-2.1,2.6-3.4c8.1-5.6,10.9-4.9,10.9-4.9s-6.2,0.9-7.7-0.4c-0.2-0.2-0.2-0.3-0.2-0.4C91,141.6,94.1,141.3,96.9,141.1z"
		/>
	<path class="st7" d="M109.5,103.5c0,0,0.1,5.6,1.3,6.4c1.2,0.8,7.6,2,6.9,3.5c-0.7,1.5-3.6,3.7,5.9-0.2c9.5-3.9,15.7-3.2,13.5-0.6
		c-2.2,2.7-5.6,4.4-5.2,7.3c0.3,2.9,0.6,4.6,1.4,4.5c0.8-0.1,8.2-8.9,10.1-7.1s-3.2,9.1-2.1,9.1c1.2,0,9.3-6.6,9.3-7.6
		c0-1,4.3-6.1-1.9-6.5s-13.5,8-13.5,6.9c0-1,9.1-8.9,6.4-10.1s-3.4-3.1-2.3-4.5c1-1.4-0.2-3.5-2.8-1.3s-6.1,3.8-3.9,0.3
		s2.3-6.2-5.8,1s-6.5,2-6.5,1.6s10.9-6.5,6.9-5.7c-3.9,0.8-12.6,2.9-10.8-0.5C118.3,96.9,113.7,98.6,109.5,103.5z"/>
	<path class="st4" d="M100.4,113.1c0,0,11.6,0.7,8,5.2c0,0-2.8,2.5,11.2,1.5s-30.6,17,8.4,9.1c0,0,5.1-2.5-2,12.2
		c0,0,0.6,0.8,7.3-4.8c6.7-5.6,13.9,8,13.9,8s3.7,4,3.8-2s-6.6-3.6-4.5-7c2.1-3.5,10.3-10.4,3.1-9.5s-19.5,11.9-16,7.5
		s12.3-13.1,7.9-12.9c-4.4,0.2-7.6,10.5-11.1,3.4c-3.5-7.1,5.3-9.7,1.9-10.4c-3.4-0.7-25.5,7.7-19.5,4.2c6-3.6-3.5-3.6-4.1-6.3
		C108.1,108.5,108.4,101.5,100.4,113.1z"/>
	<path class="st8" d="M178.4,197.5c0,0,8.6,7.5,3.7,10.4c-4.8,3-9.7,2.6-6.7,7.5s3.7,8.9,1.5,10.4s-13.4,4.8-11.9,6.7
		c1.5,1.9-3.7,3.7-3.7,3.7s8.6,1.5,16-1.5c7.5-3-13-0.4-5.6-2.6c7.5-2.2,17.1,4.5,19.4-4.5c2.2-8.9-7.8-0.4-7.5-3
		c0.4-2.6,3.7-8.9,8.6-8.6c4.8,0.4,6-20.1,2.2-19c-3.7,1.1-1.1,8.9-3,8.2c-1.9-0.7-2.2-12.3-6.3-12.7
		C181,192.3,175,190.8,178.4,197.5z"/>
	<path class="st9" d="M129.7,92.2c0,0-9.7,4.5-6.7,4.7s10.4-1.7,9.4,0.7c-1,2.5,8.2-2.7,6.7,0.5c-1.5,3.2-0.5,3.5,3.2,2.7
		c3.7-0.7,0.5,4.5,1.5,5.7c1,1.2,6.5,2.2,5,3c-1.5,0.7,6.7-4,6.9,0.7c0.2,4.7-4.2,11.2-1.5,10.9c2.7-0.2,19.4-16.9,9.4-17.1
		c-9.9-0.2-13.9,2.5-13.7-0.7c0.2-3.2,10.2-6,6.9-6.2c-3.2-0.2-10.2-0.2-8.9-3.5c1.2-3.2,0.7-4.2-2.5-3.2c-3.2,1-9.9,5-9.2,3
		s6-5,4.5-4.7C139.3,88.9,133.1,90.9,129.7,92.2z"/>
	<g>
		<path class="st2" d="M101.3,200.2c0,0,9.8-6.6,11.3-6.9s-2.8-1.9-4.3-1.2s0.4-3.9,4.5-4.4s10.4-1.7,6.8-2.4s2.8-5.5,7.1-6.2
			c4.3-0.7,1.9,5.2-2.5,7c-4.4,1.8,2.7,2.4,12.2-4.4s-6.4,3.9-4.8,0.8s4.4-6.3,3.1-6.8s-0.5-6.7-6.1-3.7c-5.6,3-14.6,7-13.3,4.7
			c1.4-2.3-12-7.1-12-2c-0.1,5.1,1.4,8.3,3.5,7.8c2.1-0.4-2.8,5.9-5.2,6.4c-2.5,0.4-13.3,4.7-7.8,5.4c5.5,0.7,10.6-3.9,10.6-3.9
			s-6.2,6.5-7.7,8.3c-1.5,1.7,2.7-1.4,3.8-1C101.5,198,98.6,202.1,101.3,200.2z"/>
		<path class="st3" d="M137.1,227.7c0,0-10.4,6.3-9.2,0.9s5.7-6.7-0.6-8.2c-6.2-1.5-13.7-2.6-9-5.5c4.7-2.9,18.8-13.2,11.4-13.4
			c-7.5-0.2-15.5-2.1-2.1-3.5s25.4,3.4,16.6,7.4c-8.9,3.9-21,8.3-14.1,8s15.7,1.1,14.3,2.6s-10,6.9-7.6,8.4S137.1,227.7,137.1,227.7
			z"/>
		<path class="st10" d="M116.9,209.8c3-2.1,14.6-6.1,8.9-5.9c-4.6,0.1-15.2,2.2-15.8,0.5c-0.2-0.5,0.9-1.4,1.2-1.7
			c7.8-6.4,18.7-6.8,18.7-6.8c6.5-0.2,11.1,1,11.3,0.4c0.2-0.7-6.8-2.3-6.6-3.3c0.1-0.7,4.4-0.8,8.3-0.3c4.1,0.6,4.9,1.5,6.8,1.1
			c4.2-0.9,7.6-6.7,6.3-8.6c-2.1-3.2-17.5,2.6-17.5,2.3c0-0.1,2.4-0.5,4.1-2.5c0.9-1,1.7-2.8,1.2-3.4c-0.9-1.1-5.7,2.5-12,5.2
			c-10.8,4.7-20.7,4.5-20.7,5.2c0.1,0.6,7.4-0.2,7.6,0.9c0.2,0.9-4.2,1.6-9.3,5c-3.6,2.3-8.8,6.7-7.8,9c0.4,0.9,1.6,1.5,4,1.6
			c9.8,0.5,11.9-1.5,11.9-1.5s-5.8,2.5-6.4,4.4c-0.1,0.3,0,0.4,0,0.4C111.6,212.5,114.5,211.2,116.9,209.8z"/>
		<path class="st4" d="M135.2,231.6c0,0,9.6-6.6,4.2-8.6c0,0-3.7-0.7,8.8-7.1c12.5-6.4-35,1.3,2.4-12.1c0,0,5.7-0.5-8.1-9.4
			c0,0,0.1-1,8.8,0.3c8.7,1.3,7.7-14.1,7.7-14.1s1.1-5.3,4.3-0.2c3.2,5.1-3.8,6.5-0.2,8.3c3.6,1.8,14.2,3.5,7.5,6.5
			c-6.7,3-22.8-0.1-17.6,1.9c5.2,1.9,17.4,4.8,13.5,6.9c-3.8,2.1-12-5-11.2,2.9c0.7,7.9,9.6,5.5,7.1,7.9c-2.5,2.4-25.8,6.6-18.8,6.5
			c7-0.1-1.1,4.8-0.2,7.5C144.2,231.5,148.1,237.3,135.2,231.6z"/>
		<path class="st5" d="M147.9,235c0,0-2.8-4.8-2.2-6.1c0.6-1.3,5.5-5.6,4.1-6.6c-1.4-0.9-5-1.3,5.2-2.9c10.1-1.6,15.1-5.4,11.9-6.5
			c-3.3-1.1-7-0.9-8.2-3.5s-1.9-4.3-1.2-4.6c0.8-0.3,11.6,3.3,12.3,0.8c0.6-2.5-7.5-6.1-6.5-6.7c1-0.6,11.3,0.8,11.9,1.7
			s6.8,3,1.8,6.5c-5.1,3.5-15.7,0.2-15.2,1.1c0.5,0.9,12.4,2.9,10.7,5.3c-1.8,2.4-1.2,4.4,0.4,5.1c1.6,0.6,1.6,3.1-1.7,2.5
			s-7.2-0.1-3.5,1.7c3.7,1.8,5.2,4.1-5.5,2.1s-6.6,1.7-6.4,2s12.7-0.1,8.9,1.2c-3.8,1.4-12.3,4.1-8.9,6
			C158.9,236.1,154.1,237.1,147.9,235z"/>
		<path class="st2" d="M88.6,157.5c0,0,11.8,0.5,13.2,0c1.5-0.5-1.5,3.1-3.1,3.3s2.4,3.1,6.2,1.5c3.8-1.6,9.8-4,7.1-1.5
			s5.3,3.3,9.2,1.6c4-1.6-1.1-5.4-5.8-4.7c-4.7,0.7,1.1-3.4,12.7-2.5s-7.4,0-4.5,1.8c2.9,1.8,7.1,3.1,6.2,4.2
			c-0.9,1.1,3.1,6-3.3,6.3c-6.3,0.4-16.1,1.6-13.8,2.9c2.4,1.3-6.5,12.3-9.2,8c-2.7-4.4-3.1-7.8-1.1-8.5s-5.4-3.6-7.8-2.7
			s-13.8,2.9-9.4-0.5c4.4-3.4,11.1-2.2,11.1-2.2s-8.7-2.4-10.9-3.1c-2.2-0.7,3.1-0.2,3.8-1.1C89.8,159.3,85.3,157.3,88.6,157.5z"/>
		<path class="st11" d="M50.7,139.4"/>
	</g>
</g>
<path class="st12" d="M224.7,140.9c0,0,10.7-0.3,8-1.7s-10.3-2.5-8.4-4.4s-8.6-0.7-6-3.1s1.8-3-1.9-3.8c-3.7-0.8,1.3-4.3,0.9-5.8
	c-0.4-1.5-5.1-4.6-3.4-4.7c1.7-0.1-7.7,1-6.1-3.4c1.6-4.4,8.2-8.6,5.6-9.5c-2.6-0.8-24.4,8-15.4,12.1c9,4.1,13.8,3.1,12.3,6
	c-1.5,2.9-11.7,1.5-8.8,3s9.3,4.2,6.9,6.7c-2.4,2.5-2.3,3.6,1,3.9c3.4,0.3,11.1-0.7,9.6,0.8c-1.5,1.5-7.4,2.2-6,2.6
	C214.5,140.1,221,140.7,224.7,140.9z"/>
<path class="st13" d="M228.2,170.2c0,0-3.9,1-4.2,1.9c-0.4,0.9-0.1,5.7-1.3,5.4s-3.2-1.9,1.1,4.1c4.3,6,4.8,10.5,2.6,9.4
	c-2.2-1.1-4-3.2-5.9-2.5c-2,0.7-3.1,1.2-2.9,1.7c0.2,0.5,7.6,4.3,6.6,5.9c-1,1.6-6.9-0.8-6.7,0c0.2,0.8,6.1,5.4,6.8,5.2
	c0.7-0.2,5,2,4.2-2.3c-0.7-4.3-7.8-8.2-7-8.3c0.7-0.2,7.7,4.9,8.1,2.8c0.4-2.1,1.6-2.8,2.8-2.3c1.1,0.5,2.4-0.7,0.4-2.1
	c-1.9-1.4-3.7-3.7-0.9-2.7s4.7,0.6-1.7-3.9c-6.4-4.5-2.4-4.2-2.2-4.3c0.2-0.1,6.3,6.6,5.1,3.9c-1.2-2.6-4.1-8.3-1.4-7.6
	C234.3,175.3,232.4,172.3,228.2,170.2z"/>
<path class="st4" d="M201.1,213.6c0,0,3.7-4.7,0.7-4.9c0,0-1.9,0.2,3.2-4.8c5.1-5-16.9,6.1-0.7-6.3c0,0,2.7-1.1-5.4-3.3
	c0,0-0.1-0.5,4.3-1.2c4.4-0.7,1.6-8.1,1.6-8.1s-0.3-2.8,2.1-0.8c2.4,2-0.9,3.8,1.2,4.1c2.1,0.3,7.5-0.5,4.7,2
	c-2.8,2.5-11.2,3.5-8.3,3.6c2.9,0.1,9.2-0.3,7.7,1.3c-1.6,1.6-6.6-0.6-5.1,3.2c1.6,3.7,5.5,1.2,4.7,2.8c-0.9,1.5-11.6,7.2-8.2,6.1
	c3.4-1.1,0.2,2.5,1.1,3.7C205.5,212.1,208.3,214.4,201.1,213.6z"/>
<path class="st14" d="M239.7,162.2c0,0.1,0,0.2,0,0.4c0,0.1,0,0.2,0,0.3v0c0,1,0,2-0.1,3c-0.1,2.8-0.4,5.6-0.8,8.4
	c-3.7,23.7-17.9,43.9-37.7,55.8c15.5-63.4,4.4-112.9-36.3-147h0.1c1.5,0.1,3,0.2,4.5,0.4c30.5,3.6,55.8,24.3,65.7,52.1
	c0,0.1,0,0.2,0.1,0.2c0,0.1,0,0.1,0.1,0.2c0.1,0.2,0.1,0.4,0.1,0.4h0c0.1,0.4,0.3,0.7,0.4,1.1c0,0.1,0.1,0.3,0.1,0.4
	c0.1,0.2,0.1,0.4,0.2,0.5c0,0.1,0,0.1,0.1,0.2c0,0,0,0.1,0,0.1c0,0.1,0,0.1,0,0.2c0,0,0,0.1,0,0.1c0.8,2.7,1.5,5.4,2,8.2l0,0.1
	c0,0.1,0,0.2,0,0.2c0.2,0.8,0.3,1.6,0.4,2.5c0.1,0.7,0.2,1.4,0.3,2.2c0,0,0,0,0,0.1c0.1,0.6,0.1,1.3,0.2,1.9c0,0.2,0,0.4,0.1,0.6
	c0.1,0.6,0.1,1.2,0.1,1.8C239.7,158.4,239.7,160.3,239.7,162.2z"/>
<path class="st15" d="M239.9,162.8c-0.2,2.6-0.4,5.3-0.6,7.9c-35.1,12.9-70.2,25.8-105.3,38.8c8.5-11.3,17-22.6,25.5-34
	c-9.7,5.4-22.5,11.4-38.1,16c-12.3,3.6-23.6,5.4-33,6.3c-0.8-1.6-1.6-3.4-2.4-5.2c-0.4-0.9-0.8-1.8-1.1-2.8
	c-1.5,0.1-2.8,0.2-4.1,0.2c-0.1,0-0.2,0-0.2,0c-0.1,0-0.1,0-0.2,0c-0.1,0-0.1,0-0.1,0c-0.2,0-0.4,0-0.5,0c-1.9,0.1-3.7,0.2-5.4,0.2
	l-1.6-5.4l6.4-1.7l3.4-0.9l6.4-1.7l0,0l9.3-2.5l11.8-3.2l0.1,0l55-14.8l0.2,0l0.1,0l18.5-5h0l11.2-3l9.5-2.6l-15.8,17.5l-1.6,1.8
	l-4.5,5v0l0,0l28.2-8.3l0,0l28.7-8.4C239.7,158.6,239.8,160.7,239.9,162.8z"/>
<g id="lightning">
	<g>
		<path class="st1" d="M165,148.2"/>
	</g>
	<path class="st11" d="M262.9,135.3c-0.3,0-0.7,0-1.1,0c-0.2,0-0.5,0-0.7,0c-0.5,0-1,0-1.5-0.1c-0.3,0-0.6,0-0.9,0
		c-0.9,0-1.9-0.1-2.9-0.1c-5.4-0.1-11.4,0.1-18.1,0.4c0,0,0,0-0.1,0c-0.8,0-1.8,0.1-2.6,0.1c0,0.1,0,0.2,0.1,0.2
		c0,0.1,0,0.1,0.1,0.2c0.1,0.2,0.1,0.4,0.1,0.4c0.1,0.2,0.1,0.3,0.2,0.5c0.1,0.2,0.1,0.4,0.2,0.6c0,0.1,0.1,0.3,0.1,0.4
		c0.1,0.2,0.1,0.4,0.2,0.5c0,0.1,0,0.1,0.1,0.2c0,0.1,0.1,0.2,0.1,0.3c0,0,0,0.1,0,0.1c0.9-0.1,2-0.1,2.8-0.2c0.5,0,1.1-0.1,1.6-0.1
		c1.3-0.1,2.6-0.1,3.8-0.2c0.3,0,0.6,0,0.9,0c6.9-0.2,10.9,0.2,11,1.4c0.1,0.9-3,1.8-13.7,6.1c-1.4,0.5-2.8,1.1-4.2,1.7
		c-1.1,0.4-2.1,0.9-3.2,1.3c-4,1.5-13.8,5.5-32.9,13.3c-4.5,1.8-9.5,3.9-15.1,6.2c-1.7,0.7-3.5,1.4-5.4,2.2c-0.5,0.2-1,0.4-1.4,0.6
		c-4.3,1.8-9,3.7-14,5.7c-0.3,0.1-0.7,0.3-1,0.4c-1.6,0.7-3.2,1.3-4.8,2c-0.1,0-0.2,0.1-0.3,0.1c0.3-0.3,0.6-0.5,1-0.8
		c7.4-6.1,15.6-13.8,23-19.7c-1.6,0.3-1.3,0.6-3,1h0c-0.8,0.1-1.5,0.3-2.3,0.4c-0.3,0.1-0.6,0.1-0.9,0.2c-0.7,0.1-1.4,0.3-2.1,0.4
		c0,0,0,0,0,0c-3.9,0.7-7.8,1.4-11.8,2.1h0c-1.1,0.2-2.2,0.4-3.3,0.6c-0.6,0.1-1.1,0.2-1.7,0.3h0c-2.8,0.5-5.5,0.9-8.1,1.4
		c-0.2,0-0.4,0.1-0.5,0.2c-19.1,6.2-33.8,9.2-38.5,10.1c-3.8,0.7-7.6,1.4-11.4,2c-0.7,0.1-1.4,0.2-2.1,0.3c-0.2,0-0.4,0.1-0.6,0.1
		c-0.3,0-0.6,0.1-0.9,0.1c-1.1,0.2-2.3,0.3-3.4,0.5c-2,0.3-3.9,0.5-5.8,0.8c-1.2,0.1-2.4,0.3-3.5,0.4c-0.6,0.1-1.3,0.1-1.9,0.2
		c-0.1,0-0.1,0-0.2,0c-0.1-0.5-0.2-1-0.4-1.6c-0.1-0.4-0.2-0.9-0.3-1.3c-0.2-0.9-0.3-1.9-0.5-2.9c-0.9,0.1-1.8,0.1-2.7,0.2
		c-9,0.5-14.3,0.1-14.4-1.2c-0.1-1.5,5.9-3.9,16.2-6.8c0-0.4,0-0.9,0-1.4c0-0.5,0-1.1,0-1.6c0-0.3,0-0.5,0-0.8
		c-26.7,7.9-43.5,15.8-43,21.2c0.4,4.9,14.7,6.9,37.4,6.3c1.8,0,3.6-0.1,5.4-0.2c0.2,0,0.4,0,0.5,0c0,0,0,0,0.1,0c0,0,0.1,0,0.2,0
		c0,0,0.1,0,0.2,0c0.1,0,0.2,0,0.3,0c0.1,0,0.2,0,0.3,0c0.8-0.1,2-0.1,3.4-0.2c0.1,0,0.1,0,0.2,0c4.4-0.3,11.2-2.9,16.7-3.6
		c9.4-1.2,16.2-3.1,22.3-4.8c17.7-4.9,36.3-11.9,48.2-18c-1.7,1.4-5.5,5.8-7.2,7.3c-0.6,0.5-1.2,1.1-1.9,1.6
		c-0.5,0.5-1.1,0.9-1.6,1.4c-2.2,1.9-4.4,3.9-6.7,5.9c-0.6,0.5-1.2,1-1.7,1.6c-0.8,0.8-1.7,1.5-2.5,2.3c1.3-0.2,1.6-1.4,2.9-1.6
		c0.1,0,0.2,0,0.4-0.1h0c0.8-0.1,1.6-0.3,2.4-0.4c0.2,0,0.5-0.1,0.8-0.1c0.6-0.1,1.2-0.2,1.8-0.3c0.7-0.1,1.5-0.2,2.2-0.4
		c0.8-0.2,1.7-0.3,2.5-0.4c0.2,0,0.4-0.1,0.6-0.1c1.8-0.3,3.6-0.6,5.4-1c0,0,0,0,0,0c0.4-0.1,0.7-0.1,1.1-0.2c0,0,0,0,0,0
		c2.7-0.5,5.3-1,7.9-1.5c0,0,0,0,0,0c1.2-0.2,2.4-0.5,3.6-0.7h0c6.6-1.3,13-2.7,19.2-4c6.1-1.4,12.1-2.8,17.7-4.2
		c4-1,7.9-2.1,11.7-3.1c0.2-0.1,0.4-0.1,0.6-0.2c2.8-0.8,5.5-1.6,8.1-2.3c0.1,0,0.1,0,0.2-0.1c0.9-0.3,1.8-0.5,2.7-0.8h0
		c0,0,0.1,0,0.1,0c0,0,0,0,0,0l0,0c0,0,0.1,0,0.1,0c0,0,0,0,0,0c0,0,0.1,0,0.2,0c0.4-0.1,0.8-0.2,1.2-0.4
		c23.9-7.4,38.6-14.6,38.2-19.8C282.1,138,275,136,262.9,135.3z"/>
	<path class="st11" d="M242.7,161.6c0,0,0,0-0.1,0.1c-0.5,0.2-1,0.4-1.5,0.6c-0.3,0.1-0.6,0.2-0.9,0.4c-0.1,0-0.2,0.1-0.2,0.1
		c-0.1,0-0.1,0.1-0.2,0.1v0c-0.3,0.1-0.5,0.2-0.8,0.3c-0.5,0.2-1.1,0.4-1.7,0.7c-0.5,0.2-1,0.4-1.5,0.6c-1,0.4-2.1,0.8-3.2,1.3
		c-1.4,0.5-4.9,1.9-9.7,3.7l0,0c-24.8,9.4-85.8,32.5-91.7,34.6l0,0c-1.3,0.5-2.7,1-4.1,1.5c5.3-6,11.2-12.2,17.6-18.5
		c1.7-1.6,3.3-3.2,5-4.8c0.8-0.8,1.7-1.6,2.5-2.3c0,0,0.9-0.8,1.7-1.6c1.5-1.4,7.1-6.2,14.7-12.6c-7.9,3.8-18.9,8.6-32.5,12.9
		c-5.5,1.8-9.5,2.8-14.1,4c0,0-22.8,6-37.1,7.1c-1.5,0.1-2.8,0.2-4.1,0.2c-0.1,0-0.2,0-0.2,0h-0.1c0,0,0,0-0.1,0c-0.1,0-0.1,0-0.1,0
		c-0.5-2.6-0.9-4.9-1.2-6.9c0-0.2,0-0.3-0.1-0.5c-0.1-0.3-0.1-0.8-0.2-1.3c0-0.3-0.1-0.6-0.1-0.9c-0.1-0.5-0.1-1.1-0.2-1.7
		c0-0.4-0.1-0.8-0.1-1.2c-0.1-0.9-0.2-1.9-0.2-2.9v0c0,0,0,0,0,0c0.6-0.1,1.5-0.1,2.6-0.2c24-2.4,42.4-7.2,65.7-14
		c19.4-5.7,40.3-12.2,62.4-19.7c-0.8,0.6-1.6,1.3-2.4,1.9c-1,0.8-1.9,1.6-2.9,2.3c-2.2,1.8-4.4,3.5-6.6,5.3
		c-0.7,0.6-1.4,1.1-2.1,1.7c-5.2,4.2-8,6.4-9,7.2c-10.5,8.6-19.5,17.2-20.8,18.4c-0.1,0.1-0.1,0.1-0.1,0.1c0.4-0.2,0.8-0.4,1.2-0.6
		c6.7-3.3,13.7-6.5,20.9-9.6c0.5-0.2,1-0.4,1.5-0.7c4-1.7,7.9-3.4,11.8-5c13-5.3,25.6-10,37.8-14.2c1.4-0.5,2.8-1,4.2-1.4l0,5.2v0.1
		l0,2.1v0.4l0,2l0,6v0C242.7,161.7,242.7,161.7,242.7,161.6z"/>
	<path class="st16" d="M242.6,153.7c-8.3,2.9-18.1,6.4-29.1,10.4c-1,0.3-1.9,0.7-2.8,1c-11.6,4.2-22.3,8.3-31.8,12c0,0,0,0,0,0
		c-11.4,4.5-21.3,8.5-29.2,11.7c2.2-2.5,4.5-5.1,6.8-7.7c3.7-4.1,7.6-8.2,11.6-12.4c2.6-2.7,5.2-5.4,7.8-8c0,0,0,0,0,0
		c1.4-1.4,2.9-2.8,4.3-4.2c-2,0.8-4.9,1.8-8.4,3.1c-4.8,1.7-9.1,3.1-12.7,4.2h0c-3.9,1.2-6.9,2.1-9,2.6c-23.4,6.6-35.1,10-42.9,11.4
		c-9.7,1.7-19.5,2.8-28.1,3.3c-17.6,1.1-31-0.1-31.4-2.6c-0.5-3,17.5-10.1,19.7-10.9c0.2,0,0.3-0.1,0.4-0.1c1.4-0.5,7.7-2.6,7.9-2.6
		l0,0c2-0.7,3.5-1.2,4.5-1.5c0,0.5,0,1.1,0,1.6c0,0-3.1,1.1-4.3,1.4c-0.1,0-0.2,0.1-0.4,0.1c-0.3,0.1-0.6,0.2-1.1,0.3
		c-0.2,0.1-0.4,0.2-0.7,0.2c-0.6,0.2-1.1,0.4-1.7,0.6c-1.3,0.4-3.1,0.9-3.1,1c-1.8,0.6-16.2,5.8-15.8,8.2c0.5,3.1,27.2,3.1,54-1.6
		c13.1-2.3,23.2-5.2,43.5-11.1c14.3-4.1,26.2-7.9,34.6-10.7c-2.2,2.5-4.3,4.8-6.2,6.8c-2.4,2.6-4.5,4.9-6.2,6.6
		c-3.9,4.1-8.1,8.4-11.4,11.7l-0.6,0.6c0,0-0.1,0.1-0.1,0.1c-0.5,0.5-1,1-1.5,1.5c-2.4,2.4-4,4-4.2,4.2c0.2-0.1,4.4-1.7,12.2-4.8
		c0.9-0.4,1.8-0.8,2.8-1.2c0,0,0,0,0,0c9-4,21.6-9.3,36.8-15c0.1,0,0.1-0.1,0.2-0.1c13.6-5.1,25.9-9.3,35.8-12.6
		c15.1-5.2,24.5-8.6,24-10.9c-0.4-1.8-6.7-2.4-12.8-3c-5.1-0.5-9.8-0.2-14.2,0c-1.4,0.1-2.6,0.2-3.8,0.3c0,0,0,0,0,0
		c-0.1-0.2-0.1-0.4-0.2-0.6c-0.1-0.2-0.1-0.3-0.2-0.5c0.2,0,0.5,0,0.8-0.1c14.5-1.3,34.3,0,35.1,3.8
		C271.8,142.9,261.1,147.1,242.6,153.7z"/>
</g>
<path class="st15" d="M282.4,141.4c0.4,5.1-14.3,12.4-38.2,19.8c-0.4,0.1-0.8,0.2-1.2,0.4c0,0-0.1,0-0.2,0c0,0,0,0,0,0
	c0,0-0.1,0-0.1,0l0,0c0,0,0,0,0,0c0,0,0,0-0.1,0.1c-0.5,0.2-1,0.4-1.5,0.6c-0.3,0.1-0.6,0.2-0.9,0.4c-0.1,0-0.2,0.1-0.2,0.1
	c-0.1,0-0.1,0.1-0.2,0.1v0c-0.3,0.1-0.5,0.2-0.8,0.3c-0.5,0.2-1.1,0.4-1.7,0.7c-0.5,0.2-1,0.4-1.5,0.6c-1,0.4-2.1,0.8-3.2,1.3
	c-1.4,0.5-4.9,1.9-9.7,3.7l0,0c-0.6-1.5-1.8-4.1-4.3-6.3c-4.5-4.1-9.9-4.2-11.4-4.2c4.1-1.6,7.6-3,10.2-4c10.1-3.8,18.3-6.6,21-7.5
	c0.7-0.2,2.2-0.6,4.2-1.4c10.8-4.2,13.8-5.2,13.7-6.1c-0.1-1.2-4-1.6-11-1.4c-0.3,0-0.6,0-0.9,0c-1.2,0-2.4,0.1-3.8,0.2
	c-0.5,0-1.1,0.1-1.6,0.1c-0.8,0.1-1.9,0.1-2.8,0.2c0,0,0-0.1,0-0.1c0-0.1,0-0.2-0.1-0.3c0-0.1,0-0.1-0.1-0.2
	c-0.1-0.2-0.1-0.4-0.2-0.5c0-0.1-0.1-0.3-0.1-0.4c0,0,0,0,0,0c-0.1-0.2-0.1-0.4-0.2-0.6c-0.1-0.2-0.1-0.3-0.2-0.5
	c0,0-0.1-0.2-0.1-0.4c0-0.1,0-0.1-0.1-0.2c0-0.1,0-0.2-0.1-0.2c0.8,0,1.8-0.1,2.6-0.1c0,0,0,0,0.1,0c6.7-0.3,12.7-0.5,18.1-0.4
	c1,0,2,0,2.9,0.1c0.3,0,0.6,0,0.9,0c0.5,0,1,0,1.5,0.1c0.2,0,0.5,0,0.7,0c0.4,0,0.7,0,1.1,0C275,136,282.1,138,282.4,141.4z"/>
</svg>
