<svg width="42" height="19" viewBox="0 0 42 19" fill="none" xmlns="http://www.w3.org/2000/svg">
<path d="M12.0454 10.8665C12.0495 12.3662 10.9079 13.5851 9.49547 13.589C9.23991 13.6611 8.26438 12.3051 8.26026 10.8054C8.17629 8.16165 8.22741 8.16151 9.48056 8.15807C10.893 8.15419 12.0413 9.36679 12.0454 10.8665Z" fill="#636363"/>
<path d="M39.813 10.6327C39.813 10.6327 33.5211 11.4021 32.7499 13.9428C31.9786 16.4835 11.2592 17.4506 11.0478 12.0249C10.9065 8.39757 14.2713 5.28863 23.2586 4.85364C32.246 4.41864 39.7351 8.63373 39.813 10.6327Z" fill="#FFB907"/>
<path d="M13.7678 14.2916L17.3977 13.8171L19.3923 13.8117L19.8532 14.0605L20.2666 15.5957L19.0981 18.4216L9.58659 18.8764L15.335 16.967L13.7678 14.2916Z" fill="#FC7C07"/>
<path d="M20.2663 15.7744C20.0873 15.7749 20.1587 13.8454 19.2382 13.8479C14.9191 13.8598 13.7431 14.7919 13.7417 14.256C13.7402 13.7201 17.8249 13.4587 19.2371 13.4549C20.4645 13.4515 20.4197 15.774 20.2663 15.7744Z" fill="#333333"/>
<path d="M18.5246 5.13201L17.7338 5.84877L16.3804 6.53134L13.3658 7.54004L11.7578 8.61634L10.522 5.58274L0 1.10974L12.9911 1.46709L18.5246 5.13201Z" fill="#FC7C07"/>
<path d="M18.5494 5.09619C18.8568 5.29843 17.5981 6.52795 15.5374 7.03382C12.5221 7.77402 11.7329 9.04509 11.6808 8.68795C11.5581 7.84743 14.6164 6.8577 15.9706 6.49671C17.4141 6.11191 18.3188 4.9445 18.5494 5.09619Z" fill="#333333"/>
</svg>